<!DOCTYPE svg PUBLIC "-//W3C//DTD SVG 1.1//EN" "http://www.w3.org/Graphics/SVG/1.1/DTD/svg11.dtd">
<svg version="1.1" xmlns="http://www.w3.org/2000/svg">
	<path fill="#FFFFFF" d="m23.078 3.281 0.279 0.232C26.027 5.807 27.726 9.3 28 12.797c0.226 3.764 -0.823 7.386 -3.281 10.281 -0.077 0.092 -0.153 0.184 -0.232 0.279C22.193 26.027 18.7 27.726 15.203 28c-3.764 0.226 -7.386 -0.823 -10.281 -3.281 -0.092 -0.077 -0.184 -0.153 -0.279 -0.232C1.973 22.193 0.274 18.7 0 15.203c-0.226 -3.764 0.823 -7.386 3.281 -10.281 0.077 -0.092 0.153 -0.184 0.232 -0.279C8.412 -1.059 17.427 -1.517 23.078 3.281"></path>
	<path fill="#FF0000" d="m11.67 6.257 0.342 0.001q0.357 0.002 0.715 0.01c0.361 0.007 0.722 0.009 1.084 0.01q0.348 0.003 0.697 0.007l0.323 0.002c1.822 0.043 3.614 0.828 4.892 2.13 1.311 1.434 1.903 3.099 1.935 5.036l0.017 0.368c0.021 0.672 -0.04 1.112 -0.345 1.71 -0.076 0.304 -0.076 0.304 -0.109 0.547h-0.219l-0.007 0.369C20.832 17.656 19.645 18.557 18.813 19.359l-0.294 0.31C18.266 19.906 18.266 19.906 17.958 19.94L17.719 19.906v0.219c-0.17 0.089 -0.341 0.175 -0.513 0.26l-0.288 0.146c-1.164 0.408 -2.395 0.39 -3.614 0.381l-0.501 -0.001a352.078 352.078 0 0 1 -1.305 -0.005c-0.446 -0.002 -0.892 -0.003 -1.337 -0.004Q8.853 20.898 7.547 20.891c-0.008 -0.804 -0.014 -1.607 -0.018 -2.411q-0.002 -0.409 -0.007 -0.819c-0.004 -0.394 -0.006 -0.788 -0.007 -1.182 -0.002 -0.121 -0.003 -0.241 -0.005 -0.365 0 -1.728 0.593 -3.106 1.799 -4.334 1.412 -1.319 3.139 -1.572 4.991 -1.513 1.021 0.059 1.946 0.454 2.634 1.221 0.164 0.213 0.316 0.424 0.457 0.653l0.124 0.185c0.149 0.397 0.135 0.788 0.135 1.209l0.008 0.256c0.005 0.94 -0.397 1.618 -1.033 2.287l-0.328 0.109 -0.005 -0.32c-0.037 -0.998 -0.104 -1.884 -0.863 -2.619 -0.912 -0.719 -1.838 -0.779 -2.96 -0.67 -0.828 0.173 -1.556 0.647 -2.078 1.313 -0.638 1.001 -0.632 1.993 -0.636 3.138a187.469 187.469 0 0 1 -0.008 0.521c-0.007 0.421 -0.01 0.842 -0.012 1.263q1.129 -0.011 2.258 -0.029 0.383 -0.005 0.767 -0.009c2.652 0.056 2.652 0.056 4.932 -1.117L17.938 17.391c0.328 -0.328 0.328 -0.328 0.488 -0.47 0.2 -0.221 0.282 -0.421 0.387 -0.699l0.103 -0.268c0.038 -0.103 0.077 -0.207 0.116 -0.313l0.085 -0.193c0.251 -0.594 0.294 -1.12 0.284 -1.762l-0.003 -0.293c-0.016 -0.68 -0.076 -1.285 -0.366 -1.908l-0.117 -0.253c-0.688 -1.347 -1.685 -2.054 -3.106 -2.521 -0.466 -0.119 -0.921 -0.115 -1.399 -0.111l-0.638 -0.006q-0.497 -0.002 -0.993 -0.001c-0.322 0 -0.645 -0.003 -0.967 -0.007l-0.298 0.003C10.867 8.581 10.483 8.472 9.953 8.094c-0.122 -0.231 -0.122 -0.231 -0.144 -0.472l-0.033 -0.238c0.246 -1.008 0.971 -1.152 1.894 -1.127"></path>
</svg>